<svg data-name="repeated_arrows_bg_pattern" xmlns="http://www.w3.org/2000/svg" viewBox="0 0 206.9732 221.4024"><path d="M48.017,221.4006,20.6215,194.0054l28.3879-28.3817,55.7767,55.7712L48.9977,277.1833,20.6163,248.8016Zm54.7963-.0057-26.9021-26.902L49.0094,167.5965,22.5949,194.0054,49.99,221.4006l-27.4007,27.401L48.9977,275.21Z" style="fill:#0077ca"/><path d="M42.5919,221.4006,15.1966,194.0054l28.19-28.1844,55.5794,55.5739L43.3756,276.986,15.1912,248.8016Zm54.7963-.0057L70.3877,194.3942,43.387,167.3992,16.7749,194.0054,44.17,221.4006,16.77,248.8016l26.6061,26.6061Z" style="fill:#0077ca"/><path d="M37.0957,221.4006,9.7,194.0054l27.9931-27.9872,55.3822,55.3767L37.6818,276.7887,9.695,248.8016Zm54.7962-.0057L64.7926,194.2956,37.6935,167.202,10.8841,194.0054l27.3953,27.3952-27.4007,27.401L37.6818,275.605Z" style="fill:#0077ca"/><path d="M31.7453,221.4006,4.35,194.0054l27.7955-27.79,55.1851,55.1794L32.1344,276.5914l-27.79-27.79Zm27.5928,27.1983.1973.1973-.1973-.1973,27.2037-27.204-27.198-27.198-27.198-27.1922L5.1394,194.0054l27.395,27.3952L5.1337,248.8016l27.0007,27.0007Z" style="fill:#0077ca"/><path d="M27.4169,221.4006.0217,194.0054,27.62,166.4128l27.4961,27.49,26.223,27.3952.0943.0987L53.9375,248.8937,27.611,276.3963.0162,248.8016ZM53.7369,248.7l27.3065-27.307L54.9168,194.0983,27.62,166.8074.4163,194.0054l27.3952,27.3952L.4108,248.8016l27.1958,27.1958Z" style="fill:#0077ca"/><path d="M150.2041,221.4006l-27.3956-27.3952,28.388-28.3817,55.7767,55.7712-55.7884,55.7884-28.3815-28.3817ZM205,221.3949l-26.902-26.902-26.9018-26.8964-26.4146,26.4089,27.395,27.3952-27.4007,27.401L151.1848,275.21Z" style="fill:#0077ca"/><path d="M144.779,221.4006l-27.3953-27.3952,28.19-28.1844,55.5794,55.5739L145.5626,276.986l-28.1844-28.1844Zm54.7962-.0057-27-27.0007-27.0007-26.995L118.962,194.0054l27.3952,27.3952-27.4007,27.401,26.6061,26.6061Z" style="fill:#0077ca"/><path d="M139.2827,221.4006l-27.3952-27.3952,27.9931-27.9872,55.3821,55.3767-55.3938,55.3938L111.882,248.8016Zm54.7963-.0057L166.98,194.2956l-27.099-27.0936-26.8094,26.8034,27.3952,27.3952-27.4007,27.401,26.8032,26.8034Z" style="fill:#0077ca"/><path d="M133.9323,221.4006l-27.395-27.3952,27.7956-27.79,55.1851,55.1794-55.1966,55.1965-27.79-27.79Zm27.5928,27.1983.1973.1973-.1973-.1973,27.2037-27.204-27.198-27.198-27.1979-27.1922-27.0064,27.0007,27.3949,27.3952-27.4007,27.401,27.0007,27.0007Z" style="fill:#0077ca"/><path d="M129.604,221.4006l-27.3953-27.3952,27.5986-27.5926,27.4961,27.49,26.2229,27.3952.0943.0987-27.4961,27.4966L129.798,276.3963l-27.5947-27.5947ZM155.924,248.7l27.3064-27.307-26.1265-27.2944-27.2966-27.2909-27.204,27.198,27.3953,27.3952-27.4008,27.401,27.1958,27.1958Z" style="fill:#0077ca"/><path d="M48.017.0057,20.6215-27.3895,49.0094-55.7712,104.7861,0,48.9977,55.7884,20.6163,27.4067ZM102.8133,0,75.9112-26.902,49.0094-53.7984,22.5949-27.3895,49.99.0057,22.5892,27.4067,48.9977,53.8155Z" style="fill:#0077ca"/><path d="M42.5919.0057,15.1966-27.3895l28.19-28.1844L98.9664,0,43.3756,55.5911,15.1912,27.4067ZM97.3882,0,70.3877-27.0007,43.387-53.9957,16.7749-27.3895,44.17.0057,16.77,27.4067,43.3756,54.0128Z" style="fill:#0077ca"/><path d="M37.0957.0057,9.7-27.3895,37.6935-55.3767,93.0757,0,37.6818,55.3938,9.695,27.4067ZM91.8919,0,64.7926-27.0993,37.6935-54.1929,10.8841-27.3895,38.2794.0057,10.8787,27.4067,37.6818,54.21Z" style="fill:#0077ca"/><path d="M31.7453.0057,4.35-27.3895l27.7955-27.79L87.3309,0,32.1344,55.1965l-27.79-27.79ZM59.3381,27.204l.1973.1973-.1973-.1973L86.5418,0,59.3438-27.198,32.1458-54.39,5.1394-27.3895,32.5344.0057,5.1337,27.4067,32.1344,54.4074Z" style="fill:#0077ca"/><path d="M27.4169.0057.0217-27.3895,27.62-54.9821l27.4961,27.49L81.3393-.0965l.0943.0987L53.9375,27.4988,27.611,55.0014.0162,27.4067Zm26.32,27.2991L81.0434-.0022,54.9168-27.2966,27.62-54.5875.4163-27.3895,27.8115.0057.4108,27.4067,27.6066,54.6025Z" style="fill:#0077ca"/><path d="M150.2041.0057,122.8085-27.3895l28.388-28.3817L206.9732,0,151.1848,55.7884,122.8033,27.4067ZM205,0l-26.902-26.902L151.1965-53.7984,124.7819-27.3895,152.1769.0057l-27.4007,27.401,26.4086,26.4088Z" style="fill:#0077ca"/><path d="M144.779.0057,117.3837-27.3895l28.19-28.1844L201.1535,0,145.5626,55.5911,117.3782,27.4067ZM199.5752,0l-27-27.0007-27.0007-26.995L118.962-27.3895,146.3572.0057l-27.4007,27.401,26.6061,26.6061Z" style="fill:#0077ca"/><path d="M139.2827.0057,111.8875-27.3895l27.9931-27.9872L195.2627,0,139.8689,55.3938,111.882,27.4067ZM194.079,0,166.98-27.0993l-27.099-27.0936L113.0712-27.3895,140.4664.0057l-27.4007,27.401L139.8689,54.21Z" style="fill:#0077ca"/><path d="M133.9323.0057l-27.395-27.3952,27.7956-27.79L189.518,0,134.3214,55.1965l-27.79-27.79ZM161.5251,27.204l.1973.1973-.1973-.1973L188.7288,0l-27.198-27.198L134.3329-54.39,107.3265-27.3895,134.7214.0057l-27.4007,27.401,27.0007,27.0007Z" style="fill:#0077ca"/><path d="M129.604.0057,102.2087-27.3895l27.5986-27.5926,27.4961,27.49L183.5263-.0965l.0943.0987L156.1245,27.4988,129.798,55.0014,102.2033,27.4067Zm26.32,27.2991L183.23-.0022,157.1039-27.2966,129.8073-54.5875l-27.204,27.198L129.9986.0057l-27.4008,27.401,27.1958,27.1958Z" style="fill:#0077ca"/><path d="M-1.2649,110.3592-28.66,82.9639-.2725,54.5822l55.7767,55.7712L-.2842,166.1419-28.6656,137.76Zm54.7962-.0058-26.902-26.902L-.2725,56.5551-26.6871,82.9639.7079,110.3592-26.6928,137.76-.2842,164.169Z" style="fill:#0077ca"/><path d="M-6.69,110.3592-34.0853,82.9639-5.8949,54.78l55.5794,55.5739L-5.9063,165.9446-34.0907,137.76Zm54.7962-.0058-27-27.0006L-5.8949,56.3578-32.507,82.9639l27.3953,27.3953L-32.5125,137.76l26.6062,26.6061Z" style="fill:#0077ca"/><path d="M-12.1862,110.3592-39.5815,82.9639l27.9931-27.9871,55.3821,55.3766L-11.6,165.7473-39.587,137.76Zm54.7962-.0058L15.5107,83.2541-11.5884,56.1605-38.3978,82.9639l27.3953,27.3953L-38.4032,137.76-11.6,164.5636Z" style="fill:#0077ca"/><path d="M-17.5367,110.3592l-27.395-27.3953,27.7956-27.79L38.049,110.3534-17.1476,165.55l-27.79-27.79Zm27.5928,27.1982.1973.1973-.1973-.1973L37.26,110.3534,10.0619,83.1555l-27.198-27.1923L-44.1425,82.9639l27.395,27.3953L-44.1483,137.76l27.0007,27.0006Z" style="fill:#0077ca"/><path d="M-21.865,110.3592-49.26,82.9639l27.5986-27.5925,27.4961,27.49,26.223,27.3953.0943.0986L4.6556,137.8523-21.671,165.3549-49.2657,137.76Zm26.32,27.299,27.3064-27.3069L5.6349,83.0568-21.6617,55.7659l-27.204,27.198L-21.47,110.3592-48.8711,137.76l27.1958,27.1958Z" style="fill:#0077ca"/><path d="M103.9221,110.3592,76.5266,82.9639l28.3879-28.3817,55.7767,55.7712-55.7884,55.7885L76.5214,137.76Zm54.7963-.0058-26.9021-26.902L104.9145,56.5551,78.5,82.9639l27.395,27.3953L78.4943,137.76l26.4085,26.4088Z" style="fill:#0077ca"/><path d="M98.497,110.3592,71.1018,82.9639,99.2922,54.78l55.5794,55.5739L99.2807,165.9446,71.0963,137.76Zm54.7963-.0058-27-27.0006L99.2922,56.3578,72.68,82.9639l27.3953,27.3953L72.6746,137.76l26.6061,26.6061Z" style="fill:#0077ca"/><path d="M93.0008,110.3592,65.6055,82.9639,93.5987,54.9768l55.3821,55.3766L93.5869,165.7473,65.6,137.76Zm54.7962-.0058L120.6977,83.2541,93.5987,56.1605,66.7893,82.9639l27.3952,27.3953L66.7838,137.76l26.8031,26.8034Z" style="fill:#0077ca"/><path d="M87.65,110.3592,60.2554,82.9639l27.7955-27.79,55.1851,55.1793L88.04,165.55,60.25,137.76Zm27.5928,27.1982.1973.1973-.1973-.1973,27.2037-27.204-27.198-27.1979L88.0509,55.9632,61.0445,82.9639,88.44,110.3592,61.0388,137.76,88.04,164.7608Z" style="fill:#0077ca"/><path d="M83.3221,110.3592,55.9268,82.9639,83.5253,55.3714l27.4961,27.49,26.223,27.3953.0943.0986-27.4961,27.4967L83.5161,165.3549,55.9213,137.76Zm26.32,27.299,27.3064-27.3069L110.822,83.0568,83.5253,55.7659,56.3214,82.9639l27.3952,27.3953L56.3159,137.76,83.5117,164.956Z" style="fill:#0077ca"/><path d="M206.1092,110.3592,178.7136,82.9639l28.388-28.3817,55.7767,55.7712L207.09,166.1419,178.7084,137.76Zm54.7962-.0058-26.902-26.902L207.1016,56.5551,180.687,82.9639l27.395,27.3953L180.6813,137.76,207.09,164.169Z" style="fill:#0077ca"/><path d="M200.6841,110.3592,173.2888,82.9639l28.19-28.1844,55.5794,55.5739-55.5908,55.5912L173.2834,137.76Zm54.7962-.0058-27-27.0006-27.0007-26.995L174.8671,82.9639l27.3953,27.3953L174.8616,137.76l26.6062,26.6061Z" style="fill:#0077ca"/><path d="M195.1878,110.3592,167.7926,82.9639l27.9931-27.9871,55.3821,55.3766L195.774,165.7473,167.7871,137.76Zm54.7963-.0058L222.8848,83.2541,195.7857,56.1605,168.9763,82.9639l27.3953,27.3953L168.9708,137.76l26.8032,26.8034Z" style="fill:#0077ca"/><path d="M189.8374,110.3592l-27.395-27.3953,27.7956-27.79,55.1851,55.1793L190.2265,165.55l-27.79-27.79ZM217.43,137.5574l.1973.1973-.1973-.1973,27.2037-27.204L217.436,83.1555,190.238,55.9632,163.2316,82.9639l27.395,27.3953L163.2258,137.76l27.0007,27.0006Z" style="fill:#0077ca"/><path d="M185.5091,110.3592,158.1138,82.9639l27.5986-27.5925,27.4961,27.49,26.223,27.3953.0942.0986L212.03,137.8523l-26.3266,27.5026L158.1084,137.76Zm26.32,27.299,27.3064-27.3069L213.009,83.0568,185.7124,55.7659l-27.204,27.198,27.3953,27.3953L158.503,137.76l27.1958,27.1958Z" style="fill:#0077ca"/></svg>