<?xml version="1.0" encoding="utf-8"?>
<!-- Generator: Adobe Illustrator 25.0.1, SVG Export Plug-In . SVG Version: 6.00 Build 0)  -->
<svg version="1.1" id="Layer_1" xmlns="http://www.w3.org/2000/svg" xmlns:xlink="http://www.w3.org/1999/xlink" x="0px" y="0px"
	 viewBox="0 0 93.0005 100" style="enable-background:new 0 0 93.0005 100;" xml:space="preserve">
<style type="text/css">
	.st0{fill:#0077CA;}
	.st1{fill:#0077CA;stroke:#0077CA;stroke-width:0.15;stroke-miterlimit:10;}
</style>
<g>
	<g>
		<path class="st0" d="M42.6978,49.9005l-24.275-24.2747L43.5772,0.477l49.4233,49.4185L43.5668,99.3291L18.4183,74.1804
			L42.6978,49.9005z M91.2524,49.8955L67.4147,26.0578L43.5772,2.2252L20.1715,25.6258L44.446,49.9005L20.1664,74.1804
			L43.5668,97.581L91.2524,49.8955z"/>
	</g>
	<g>
		<path class="st1" d="M33.0205,49.9005L8.7458,25.6258L33.5503,0.8266L82.624,49.8955L33.54,98.9795L8.741,74.1804L33.0205,49.9005
			z M81.5751,49.8955L57.5626,25.883L33.5503,1.8755L9.7947,25.6258l24.2747,24.2747L9.7899,74.1804l23.75,23.7503L81.5751,49.8955z
			"/>
	</g>
	<g>
		<path class="st0" d="M24.2796,49.9005L0.0051,25.6258L24.6345,1.0015l48.8991,48.894L24.6244,98.8047L0,74.1804L24.2796,49.9005z
			 M48.7293,74.0007l0.1748,0.1748L48.7293,74.0007l24.105-24.1052L48.7344,25.7956L24.6345,1.7007L0.7043,25.6258l24.2745,24.2747
			L0.6993,74.1804l23.9251,23.9251L48.7293,74.0007z"/>
	</g>
</g>
</svg>
