<?xml version="1.0" standalone="no"?>
<!DOCTYPE svg PUBLIC "-//W3C//DTD SVG 1.1//EN" "http://www.w3.org/Graphics/SVG/1.1/DTD/svg11.dtd" >
<svg xmlns="http://www.w3.org/2000/svg">
<metadata></metadata>
<defs>
<font id="franklin_gothic_fscondensed" horiz-adv-x="511" >
<font-face units-per-em="1000" ascent="827" descent="-173" />
<missing-glyph horiz-adv-x="187" />
<glyph unicode="&#xfb01;" horiz-adv-x="443" d="M79 0v433h-71v60h71q1 72 8 102t27 53q30 33 99 33q19 0 42 -4v-60q-13 3 -24 3q-62 0 -73 -46q-6 -24 -6 -81h91v-60h-91v-433h-73zM300 581v85h80v-85h-80zM304 0v493h73v-493h-73z" />
<glyph unicode="&#xfb02;" horiz-adv-x="442" d="M79 0v433h-71v60h71q1 72 8 102t27 53q30 33 99 33q19 0 42 -4v-60q-13 3 -24 3q-62 0 -73 -46q-6 -24 -6 -81h91v-60h-91v-433h-73zM304 0v667h73v-667h-73z" />
<glyph horiz-adv-x="0" />
<glyph horiz-adv-x="333" />
<glyph unicode=" "  horiz-adv-x="187" />
<glyph unicode="&#x09;" horiz-adv-x="187" />
<glyph unicode="&#xa0;" horiz-adv-x="187" />
<glyph unicode="!" horiz-adv-x="341" d="M146 164l-27 503h102l-27 -503h-48zM125 0v102h91v-102h-91z" />
<glyph unicode="&#x22;" d="M297 409l-14 258h82l-14 -258h-54zM161 409l-14 258h81l-13 -258h-54z" />
<glyph unicode="#" d="M73 0l38 211h-102l10 57h102l27 148h-102l10 57h102l36 194h60l-35 -194h120l35 194h60l-35 -194h102l-10 -57h-102l-27 -148h102l-10 -57h-102l-38 -211h-61l39 211h-121l-38 -211h-60zM182 268h120l27 148h-121z" />
<glyph unicode="$" d="M53 171l64 30q30 -106 116 -119v232q-54 15 -86 38q-67 46 -67 134q0 46 20.5 84t56.5 61q30 18 76 24v66h55v-66q67 -8 104 -37.5t56 -90.5l-58 -24q-20 47 -41 66t-61 26v-215q89 -21 129 -62.5t40 -113.5q0 -163 -169 -185v-86h-55v86q-74 10 -116.5 46t-63.5 106z M233 392v203q-41 -7 -63 -33.5t-22 -67.5q0 -40 20 -64t65 -38zM288 82q48 5 74.5 33.5t26.5 76.5q0 46 -23.5 71.5t-77.5 38.5v-220z" />
<glyph unicode="%" horiz-adv-x="681" d="M178 329q-59 0 -94.5 47.5t-35.5 125.5q0 79 36 126t95 47q58 0 94 -48t36 -125q0 -78 -36 -125.5t-95 -47.5zM145 0l334 667h58l-333 -667h-59zM178 380q35 0 51 29.5t16 92.5q0 122 -66 122q-35 0 -51 -28.5t-16 -92.5t15.5 -93.5t50.5 -29.5zM372 165q0 79 36 126 t96 47q58 0 93.5 -47.5t35.5 -125.5t-35.5 -125.5t-94.5 -47.5t-95 47.5t-36 125.5zM436 165q0 -64 16 -93t51 -29q34 0 50 29t16 93q0 122 -65 122q-36 0 -52 -29t-16 -93z" />
<glyph unicode="&#x26;" horiz-adv-x="613" d="M579 64v-64q-36 -11 -56 -11q-30 0 -50 13.5t-51 54.5q-41 -38 -78.5 -54.5t-83.5 -16.5q-84 0 -137.5 55.5t-53.5 141.5q0 129 140 201q-55 98 -55 157t41 99.5t102 40.5q60 0 95.5 -36t35.5 -96q0 -108 -127 -185l132 -198q45 69 65 199l61 -17q-26 -149 -89 -238 q24 -33 38 -43t37 -10q13 0 34 7zM269 411q91 56 91 133q0 35 -19 57t-49 22t-49.5 -22.5t-19.5 -56.5q0 -54 46 -133zM389 110l-147 224q-51 -33 -73 -67.5t-22 -81.5q0 -62 33.5 -100t87.5 -38q68 0 121 63z" />
<glyph unicode="'" horiz-adv-x="341" d="M144 409l-14 258h81l-13 -258h-54z" />
<glyph unicode="(" horiz-adv-x="255" d="M174 -167q-146 203 -146 417q0 213 146 417h59q-124 -194 -124 -417q0 -222 124 -417h-59z" />
<glyph unicode=")" horiz-adv-x="255" d="M22 -167q124 193 124 417q0 223 -124 417h59q146 -204 146 -417q0 -214 -146 -417h-59z" />
<glyph unicode="*" d="M222 312l11 140l-117 -77l-29 60l120 54l-120 55l29 60l117 -77l-11 140h66l-10 -140l116 77l29 -60l-120 -55l120 -54l-29 -60l-116 77l10 -140h-66z" />
<glyph unicode="+" d="M223 129v174h-172v61h172v174h65v-174h172v-61h-172v-174h-65z" />
<glyph unicode="," horiz-adv-x="239" d="M83 0v108h91v-108l-65 -127h-44l59 127h-41z" />
<glyph unicode="-" horiz-adv-x="290" d="M35 218v60h220v-60h-220z" />
<glyph unicode="." horiz-adv-x="239" d="M74 0v108h91v-108h-91z" />
<glyph unicode="/" horiz-adv-x="443" d="M-7 -167l337 834h62l-337 -834h-62z" />
<glyph unicode="0" d="M123 40q-81 87 -81 294q0 206 81 293q51 54 134 54q78 0 130 -54q81 -87 81 -294q0 -206 -81 -293q-51 -54 -132 -54t-132 54zM255 47q65 0 98.5 73.5t33.5 213.5q0 138 -33.5 212t-97.5 74q-65 0 -99 -72.5t-34 -212.5q0 -141 33.5 -214.5t98.5 -73.5z" />
<glyph unicode="1" d="M131 0v60h113v504q-37 -53 -119 -99v80q79 43 145 130h55v-615h107v-60h-301z" />
<glyph unicode="2" d="M37 0v67q182 159 252.5 248.5t70.5 162.5q0 61 -34 98t-89 37t-86.5 -35t-42.5 -108l-71 16q11 53 25.5 82.5t41.5 56.5q56 56 141 56q89 0 142 -54t53 -145t-69 -182.5t-243 -230.5h312v-69h-403z" />
<glyph unicode="3" d="M107 507l-63 19q19 68 53 102q55 53 145 53q87 0 138 -49t51 -132q0 -55 -24 -88t-84 -61q131 -33 131 -167q0 -89 -60 -143.5t-158 -54.5q-113 0 -172 71q-28 33 -41 93l66 23q17 -57 43 -84q42 -42 103 -42q59 0 95 38t36 101q0 70 -47 105q-33 25 -114 25h-43v60h43 q47 0 68 5t39 21q37 34 37 93q0 57 -30.5 91t-82.5 34q-53 0 -86 -33q-26 -25 -43 -80z" />
<glyph unicode="4" d="M34 161v54l251 465h101v-459h90v-60h-90v-161h-76v161h-276zM108 221h202v397z" />
<glyph unicode="5" d="M154 598l-10 -213q31 37 59.5 51t71.5 14q87 0 137 -60t50 -164q0 -110 -58 -175t-156 -65q-85 0 -141 51q-41 38 -59 107l70 26q21 -65 50.5 -90.5t82.5 -25.5q64 0 98 44t34 127q0 157 -125 157q-46 0 -76.5 -21t-52.5 -69l-57 14l19 361h338l-7 -69h-268z" />
<glyph unicode="6" d="M471 532l-71 -24q-18 58 -44 81.5t-71 23.5q-76 0 -112.5 -69t-42.5 -224q25 61 63.5 89.5t94.5 28.5q83 0 136 -62t53 -160q0 -103 -56 -166.5t-145 -63.5q-104 0 -162 86t-58 241q0 171 61.5 269.5t168.5 98.5q77 0 127 -47q35 -33 58 -102zM147 213q0 -68 38 -113.5 t95 -45.5t88 40.5t31 115.5t-31.5 117.5t-87.5 42.5q-58 0 -95.5 -44t-37.5 -113z" />
<glyph unicode="7" d="M183 0q-1 9 -1 20q0 152 64 327q23 62 54 117.5t87 133.5h-306l7 69h376v-49q-102 -138 -159 -335q-40 -143 -40 -263v-20h-82z" />
<glyph unicode="8" d="M37 167q0 62 32.5 105t103.5 76q-60 34 -85 70t-25 88q0 78 55 126.5t144 48.5q85 0 137.5 -46.5t52.5 -122.5q0 -52 -28.5 -88.5t-90.5 -65.5q73 -33 107 -77.5t34 -105.5q0 -84 -61.5 -136.5t-159.5 -52.5q-100 0 -158 48.5t-58 132.5zM253 385q46 17 65 29 q62 37 62 99q0 47 -34 77t-87 30q-52 0 -84 -29t-32 -76q0 -91 110 -130zM112 170q0 -55 39.5 -89t102.5 -34q62 0 100.5 32.5t38.5 84.5t-34 86.5t-111 61.5q-46 -17 -71 -33q-65 -41 -65 -109z" />
<glyph unicode="9" d="M45 119l68 31q19 -54 44 -75t69 -21q71 0 106.5 68t42.5 217q-24 -51 -48 -73q-43 -38 -104 -38q-81 0 -134 63t-53 160q0 102 57.5 166t149.5 64q90 0 141 -59q69 -76 69 -261q0 -182 -60.5 -278.5t-174.5 -96.5q-65 0 -105 30.5t-68 102.5zM238 296q54 0 89 45t35 114 q0 70 -34 114t-87 44q-59 0 -93 -43.5t-34 -118.5q0 -70 34 -112.5t90 -42.5z" />
<glyph unicode=":" horiz-adv-x="238" d="M74 385v108h91v-108h-91zM74 0v108h91v-108h-91z" />
<glyph unicode=";" horiz-adv-x="239" d="M83 385v108h91v-108h-91zM83 0v108h91v-108l-65 -127h-44l59 127h-41z" />
<glyph unicode="&#x3c;" d="M39 304v59l433 200v-66l-361 -164l361 -163v-67z" />
<glyph unicode="=" d="M51 367v61h409v-61h-409zM51 239v61h409v-61h-409z" />
<glyph unicode="&#x3e;" d="M39 103v67l361 163l-361 164v66l433 -201v-58z" />
<glyph unicode="?" horiz-adv-x="494" d="M182 167v19q0 77 17 111t77 78q38 28 53.5 57.5t15.5 70.5q0 56 -28.5 86.5t-80.5 30.5q-114 0 -127 -153l-70 19q24 195 200 195q85 0 136 -48.5t51 -130.5q0 -55 -22.5 -94t-79.5 -84q-47 -36 -60 -58.5t-12 -64.5l1 -34h-71zM172 0v102h91v-102h-91z" />
<glyph unicode="@" horiz-adv-x="579" d="M503 84l19 -44q-60 -30 -105 -42t-99 -12q-144 0 -229 91.5t-85 246.5q0 160 85 258.5t224 98.5q122 0 193 -81t71 -221q0 -108 -42.5 -175t-111.5 -67q-60 0 -71 58q-17 -34 -36.5 -48t-50.5 -14q-53 0 -83 42.5t-30 118.5q0 95 41 157.5t103 62.5q32 0 51.5 -16.5 t31.5 -53.5l9 62h51l-29 -208q-7 -47 -7 -72q0 -33 28 -33q40 0 65 49.5t25 128.5q0 142 -72 209q-57 54 -140 54q-106 0 -175 -87.5t-69 -220.5q0 -131 70.5 -211.5t185.5 -80.5q90 0 182 50zM271 192q34 0 57.5 48t23.5 117q0 46 -14 72t-39 26q-35 0 -58 -44.5 t-23 -113.5q0 -46 15 -75.5t38 -29.5z" />
<glyph unicode="A" horiz-adv-x="494" d="M16 0l187 667h96l177 -667h-81l-49 191h-201l-48 -191h-81zM162 256h167l-83 332z" />
<glyph unicode="B" horiz-adv-x="528" d="M70 0v667h181q92 0 133 -22q32 -18 51.5 -57t19.5 -86q0 -56 -24.5 -91.5t-77.5 -56.5q52 -15 77 -40q48 -48 48 -128q0 -105 -79 -154q-51 -32 -143 -32h-186zM151 384h89q70 0 100.5 25.5t30.5 83.5q0 56 -29 81.5t-91 25.5h-100v-216zM151 67h103q67 0 103.5 31.5 t36.5 90.5q0 69 -47 103q-36 25 -109 25h-87v-250z" />
<glyph unicode="C" d="M487 477l-78 -18q-14 75 -33 103q-33 51 -95 51q-74 0 -112.5 -71.5t-38.5 -209.5q0 -142 45 -216q39 -62 107 -62q54 0 81.5 33.5t45.5 121.5l74 -18q-21 -110 -69 -157.5t-137 -47.5q-114 0 -173.5 88.5t-59.5 258.5q0 167 61.5 257.5t174.5 90.5q85 0 134.5 -49 t72.5 -155z" />
<glyph unicode="D" horiz-adv-x="562" d="M70 0v667h144q142 0 223.5 -88t81.5 -241q0 -100 -39 -179.5t-108 -119.5q-66 -39 -158 -39h-144zM151 67h63q104 0 161.5 70t57.5 195q0 126 -58 197t-161 71h-63v-533z" />
<glyph unicode="E" horiz-adv-x="460" d="M70 0v667h362v-67h-281v-221h222v-67h-222v-245h289v-67h-370z" />
<glyph unicode="F" horiz-adv-x="409" d="M70 0v667h350v-67h-269v-221h221v-67h-221v-312h-81z" />
<glyph unicode="G" horiz-adv-x="562" d="M446 -9l-11 92q-51 -97 -161 -97q-80 0 -135 50q-95 89 -95 294q0 170 63 260.5t182 90.5q85 0 133 -42.5t74 -140.5l-73 -28q-20 68 -40 96q-33 47 -97 47q-156 0 -156 -280q0 -137 40 -208t116 -71q65 0 101 49t36 138v22h-137v67h215v-339h-55z" />
<glyph unicode="H" horiz-adv-x="545" d="M70 0v667h81v-283h242v283h81v-667h-81v317h-242v-317h-81z" />
<glyph unicode="I" horiz-adv-x="222" d="M70 0v667h81v-667h-81z" />
<glyph unicode="J" horiz-adv-x="307" d="M-18 0v66q35 -12 69 -12q64 0 84 38q13 22 16.5 56t3.5 127v392h81v-392q0 -136 -12 -177q-31 -112 -158 -112q-32 0 -84 14z" />
<glyph unicode="K" horiz-adv-x="494" d="M70 0v667h81v-351l233 351h91l-175 -244l217 -423h-93l-175 350l-98 -137v-213h-81z" />
<glyph unicode="L" horiz-adv-x="392" d="M70 0v667h81v-600h253v-67h-334z" />
<glyph unicode="M" horiz-adv-x="682" d="M66 0v667h117l157 -537l157 537h114v-667h-76v578l-172 -578h-59l-168 579v-579h-70z" />
<glyph unicode="N" horiz-adv-x="562" d="M67 0v667h103l255 -527v527h70v-667h-80l-278 568v-568h-70z" />
<glyph unicode="O" horiz-adv-x="562" d="M128 46q-84 90 -84 285q0 200 84 290q57 60 158 60q112 0 172.5 -90t60.5 -258t-60.5 -257.5t-175.5 -89.5q-98 0 -155 60zM169 119q39 -66 112 -66q83 0 120 80q34 71 34 201q0 280 -152 280q-84 0 -121 -80q-34 -71 -34 -200q0 -144 41 -215z" />
<glyph unicode="P" horiz-adv-x="477" d="M70 0v667h143q115 0 166 -37q77 -55 77 -163q0 -118 -88 -168q-29 -16 -61 -22t-94 -6h-62v-271h-81zM151 338h62q86 0 117 23q42 30 42 106q0 79 -49 114q-21 16 -56 19h-54h-62v-262z" />
<glyph unicode="Q" horiz-adv-x="562" d="M265 -23v10q-60 5 -106 34q-55 35 -85 117.5t-30 195.5q0 197 84 287q57 60 155 60q115 0 175.5 -89t60.5 -258q0 -192 -81 -285q-33 -37 -96 -55q0 -53 17 -72t63 -19q24 0 51 10v-66q-34 -14 -68 -14q-68 0 -104 37t-36 107zM281 53q82 0 119 80q34 71 34 201 q0 138 -38 209t-112 71q-85 0 -122 -80q-33 -69 -33 -200q0 -281 152 -281z" />
<glyph unicode="R" d="M70 0v667h194q93 0 140 -41q58 -50 58 -141q0 -121 -109 -175l125 -310h-87l-112 291h-128v-291h-81zM151 358h101q62 0 95.5 33.5t33.5 95.5q0 54 -32 83.5t-91 29.5h-107v-242z" />
<glyph unicode="S" d="M453 514l-72 -21q-22 67 -51.5 93.5t-82.5 26.5q-50 0 -80.5 -29t-30.5 -75q0 -39 25 -64q16 -16 39.5 -28t83.5 -35q94 -36 134 -72q55 -50 55 -129q0 -86 -59.5 -140.5t-153.5 -54.5q-104 0 -164 57q-26 24 -41 53.5t-25 79.5l74 20q16 -65 45 -97q40 -45 113 -45 q57 0 92 31.5t35 82.5q0 46 -28.5 74.5t-102.5 57.5q-72 28 -96 40t-46 32q-27 24 -43 60t-16 73q0 77 55.5 126.5t141.5 49.5q89 0 143 -57q35 -36 56 -110z" />
<glyph unicode="T" horiz-adv-x="358" d="M138 0v599h-159v68h400v-68h-160v-599h-81z" />
<glyph unicode="U" horiz-adv-x="545" d="M475 667v-432q0 -73 -8 -112.5t-28 -67.5q-49 -69 -168 -69q-117 0 -166 69q-35 49 -35 171v441h81v-441q0 -61 5 -88.5t20 -45.5q31 -38 98 -38q79 0 108 53q17 33 17 123v437h76z" />
<glyph unicode="V" horiz-adv-x="460" d="M189 0l-182 667h83l146 -551l144 551h77l-186 -667h-82z" />
<glyph unicode="W" horiz-adv-x="699" d="M161 0l-143 667h79l107 -530l118 530h64l121 -530l106 530h70l-138 -667h-76l-118 510l-114 -510h-76z" />
<glyph unicode="X" horiz-adv-x="426" d="M-7 0l174 348l-152 319h90l109 -245l125 245h73l-153 -304l174 -363h-94l-127 286l-143 -286h-76z" />
<glyph unicode="Y" horiz-adv-x="392" d="M156 0v282l-185 385h86l146 -307l144 307h74l-184 -385v-282h-81z" />
<glyph unicode="Z" horiz-adv-x="409" d="M6 0v71l302 529h-286v67h377v-55l-309 -541h316v-71h-400z" />
<glyph unicode="[" horiz-adv-x="255" d="M130 -116h73v-51h-146v834h146v-51h-73v-732z" />
<glyph unicode="\" horiz-adv-x="443" d="M388 -167l-337 834h62l337 -834h-62z" />
<glyph unicode="]" horiz-adv-x="255" d="M52 -116h73v732h-73v51h146v-834h-146v51z" />
<glyph unicode="^" d="M33 368l179 300h87l179 -300h-73l-150 248l-149 -248h-73z" />
<glyph unicode="_" horiz-adv-x="500" d="M0 -67h500v-62h-500v62z" />
<glyph unicode="`" horiz-adv-x="500" d="M264 562l-166 105l51 54l149 -124z" />
<glyph unicode="a" horiz-adv-x="460" d="M403 0h-70q-5 36 -6 88q-28 -56 -60 -79t-81 -23q-66 0 -106 41t-40 108q0 64 37 109q54 63 180 63q28 0 65 -4v21q0 63 -22.5 92.5t-70.5 29.5q-76 0 -97 -78l-72 12q11 53 45 82q51 45 130 45q92 0 133 -57q16 -22 21 -51.5t5 -95.5v-145q0 -115 9 -158zM323 209l-1 35 q-30 7 -57 7q-148 0 -148 -119q0 -41 21.5 -63t61.5 -22q55 0 90 45t33 117z" />
<glyph unicode="b" horiz-adv-x="477" d="M66 0v667h73v-239q26 40 55.5 57.5t70.5 17.5q81 0 126.5 -66.5t45.5 -185.5q0 -126 -48.5 -193.5t-139.5 -67.5q-49 0 -75.5 17t-49.5 62q-8 -24 -20 -69h-38zM139 211q0 -160 110 -160q55 0 81 48.5t26 152.5q0 101 -24.5 145.5t-80.5 44.5t-88 -57q-24 -41 -24 -99 v-75z" />
<glyph unicode="c" horiz-adv-x="409" d="M314 167l74 -9q-13 -83 -42 -120q-39 -52 -127 -52q-87 0 -132.5 65.5t-45.5 191.5q0 130 46.5 197t137.5 67q77 0 115 -46q18 -22 28 -47.5t20 -73.5l-74 -15q-10 63 -22 85q-21 36 -69 36q-55 0 -78 -49.5t-23 -166.5q0 -95 25 -139t78 -44t74 49q10 22 15 71z" />
<glyph unicode="d" horiz-adv-x="477" d="M345 0v69q-45 -79 -132 -79q-83 0 -128 65.5t-45 185.5q0 121 47 191.5t128 70.5q85 0 123 -77v241h73v-667h-66zM338 211v82q0 41 -6.5 64t-25.5 46q-30 39 -79 39q-107 0 -107 -191q0 -200 111 -200q52 0 84 43q23 32 23 117z" />
<glyph unicode="e" horiz-adv-x="443" d="M333 147l68 -16q-37 -145 -172 -145q-90 0 -139 66.5t-49 187.5q0 123 51.5 195t139.5 72q82 0 129 -64q31 -42 43 -127q4 -32 5 -78h-291v-10q0 -181 115 -181q38 0 60.5 22.5t39.5 77.5zM122 298h204q0 71 -26.5 109.5t-74.5 38.5q-91 0 -103 -148z" />
<glyph unicode="f" horiz-adv-x="238" d="M79 0v433h-71v60h71q1 101 20 135q17 29 42.5 41t69.5 12q27 0 56 -7v-60q-19 6 -37 6q-61 0 -72 -46q-6 -24 -6 -81h91v-60h-91v-433h-73z" />
<glyph unicode="g" horiz-adv-x="426" d="M421 570v-63q-10 2 -20 2q-23 0 -35 -14.5t-17 -47.5q38 -51 38 -111q0 -73 -47 -120.5t-120 -47.5q-25 0 -60 9q-23 -8 -32 -18t-9 -29q0 -27 22 -37q15 -8 108 -12q100 -5 135 -23q53 -27 53 -103q0 -69 -54.5 -106.5t-154.5 -37.5q-95 0 -146 33.5t-51 96.5 q0 73 66 98q-46 31 -46 76q0 63 63 91q-31 31 -43.5 60.5t-12.5 70.5q0 71 47.5 120.5t117.5 49.5q41 0 81 -22q9 48 32.5 66.5t72.5 18.5h12zM222 225q40 0 65 31t25 79q0 50 -24.5 80.5t-65.5 30.5t-64.5 -30t-23.5 -82q0 -49 24 -79t64 -30zM182 20h-34q-42 -25 -42 -66 q0 -44 30.5 -64t96.5 -20q129 0 129 81q0 49 -48 61q-32 8 -132 8z" />
<glyph unicode="h" horiz-adv-x="460" d="M66 0v667h73v-250q33 90 123 90q85 0 117 -68q15 -31 15 -133v-306h-73v306q0 80 -14 104q-19 36 -65 36q-50 0 -76.5 -49t-26.5 -140v-257h-73z" />
<glyph unicode="i" horiz-adv-x="204" d="M62 581v85h79v-85h-79zM65 0v493h73v-493h-73z" />
<glyph unicode="j" horiz-adv-x="204" d="M63 581v85h79v-85h-79zM65 19v474h73v-474q0 -68 -4 -96t-16 -48q-31 -50 -103 -50q-23 0 -56 8v61q28 -8 49 -8q43 0 53 37q4 16 4 96z" />
<glyph unicode="k" horiz-adv-x="409" d="M66 0v667h73v-419l176 245h81l-130 -174l146 -319h-79l-115 262l-79 -107v-155h-73z" />
<glyph unicode="l" horiz-adv-x="204" d="M66 0v667h73v-667h-73z" />
<glyph unicode="m" horiz-adv-x="698" d="M66 0v493h68v-75q25 51 50.5 70t70.5 19q50 0 78 -23.5t40 -76.5q21 53 52 76.5t78 23.5q79 0 111 -59q19 -37 19 -144v-304h-73v300q0 80 -11 106q-18 40 -64 40q-47 0 -73 -40.5t-26 -114.5v-291h-73v291q0 82 -6 104q-15 51 -71 51q-58 0 -84 -61q-13 -31 -13 -99 v-286h-73z" />
<glyph unicode="n" horiz-adv-x="460" d="M66 0v493h68v-77q22 49 51 70t76 21q92 0 121 -73q12 -31 12 -120v-314h-73v304q0 82 -13 108q-18 34 -64 34q-57 0 -85 -56q-20 -40 -20 -124v-266h-73z" />
<glyph unicode="o" horiz-adv-x="460" d="M229 -14q-90 0 -139 67.5t-49 191.5q0 127 49 194.5t141 67.5q70 0 118 -43q70 -66 70 -218q0 -126 -49 -193t-141 -67zM230 47q108 0 108 200q0 97 -27.5 148t-79.5 51q-109 0 -109 -199q0 -200 108 -200z" />
<glyph unicode="p" horiz-adv-x="477" d="M139 64v-231h-73v660h66v-87q23 51 54 74t78 23q79 0 126 -68t47 -182q0 -154 -76 -228q-36 -35 -97 -35q-44 0 -71.5 16t-53.5 58zM139 283v-74q0 -51 5.5 -73t24.5 -45q33 -40 78 -40q53 0 81 51t28 147q0 92 -28.5 142.5t-80.5 50.5q-56 0 -87 -59q-21 -38 -21 -100z " />
<glyph unicode="q" horiz-adv-x="477" d="M338 -167v240q-26 -45 -55.5 -64t-72.5 -19q-79 0 -124.5 66.5t-45.5 181.5q0 157 78 227q44 39 103 39q44 0 72.5 -21t51.5 -71q17 43 27 88h39v-667h-73zM338 227v57q0 69 -30.5 113.5t-77.5 44.5q-53 0 -81 -51t-28 -147q0 -91 28.5 -142t78.5 -51t84 54q26 41 26 122 z" />
<glyph unicode="r" horiz-adv-x="256" d="M66 0v493h65v-103q28 73 74 101q24 16 52 16q3 0 16 -1v-82q-9 1 -19 1q-53 0 -84 -45q-31 -44 -31 -125v-255h-73z" />
<glyph unicode="s" horiz-adv-x="392" d="M352 381l-64 -16q-27 81 -96 81q-37 0 -61 -21.5t-24 -54.5q0 -35 28 -53q15 -10 87 -32q82 -25 116.5 -58.5t34.5 -88.5q0 -67 -50 -109.5t-129 -42.5q-84 0 -131 45q-32 31 -46 96l68 15q19 -95 113 -95q43 0 71 23t28 58q0 31 -21 49.5t-75 34.5q-97 31 -124 54 q-42 36 -42 93q0 62 46.5 105t114.5 43q120 0 156 -126z" />
<glyph unicode="t" horiz-adv-x="255" d="M268 55v-61q-40 -8 -68 -8q-85 0 -111 56q-15 34 -15 143v248h-71v60h71v115l73 7v-122h97v-60h-97v-248q0 -94 15 -113q18 -22 62 -22q19 0 44 5z" />
<glyph unicode="u" horiz-adv-x="460" d="M326 0v74q-25 -48 -53.5 -68t-74.5 -20q-89 0 -118 71q-14 36 -14 125v311h73v-311q0 -72 7 -93q15 -42 68 -42q55 0 85 58q22 45 22 163v225h73v-493h-68z" />
<glyph unicode="v" horiz-adv-x="375" d="M150 0l-143 493h74l112 -405l108 405h67l-143 -493h-75z" />
<glyph unicode="w" horiz-adv-x="562" d="M135 0l-123 493h73l85 -370l84 370h53l91 -374l88 374h61l-121 -493h-62l-85 347l-78 -347h-66z" />
<glyph unicode="x" horiz-adv-x="341" d="M-13 0l140 259l-127 234h83l88 -167l85 167h74l-122 -227l145 -266h-85l-103 196l-101 -196h-77z" />
<glyph unicode="y" horiz-adv-x="375" d="M25 -113q21 -4 34 -4q40 0 56.5 23.5t42.5 115.5l-139 471h73l101 -369l110 369h69l-170 -543q-23 -73 -50.5 -100.5t-78.5 -27.5q-21 0 -48 5v60z" />
<glyph unicode="z" horiz-adv-x="324" d="M8 0v60l218 373h-200v60h293v-40l-227 -393h227v-60h-311z" />
<glyph unicode="{" horiz-adv-x="255" d="M73 -9v114q0 59 -2.5 76.5t-13.5 28.5q-14 15 -37 15h-4v60h5q26 0 40 20q8 11 10 27.5t2 72.5v103q0 55 3.5 78t13.5 39q26 43 93 43q17 0 27 -1v-52q-42 0 -53 -18.5t-11 -88.5v-103q0 -85 -11 -110.5t-52 -39.5q29 -9 41.5 -22.5t17 -40.5t4.5 -87v-114 q0 -70 11 -88.5t53 -18.5v-52q-10 -1 -27 -1q-74 0 -97 48q-13 26 -13 112z" />
<glyph unicode="|" horiz-adv-x="500" d="M217 -167v834h67v-834h-67z" />
<glyph unicode="}" horiz-adv-x="255" d="M110 -9v114q0 85 11 110.5t52 39.5q-41 14 -52 39.5t-11 110.5v103q0 70 -11 88.5t-54 18.5v52q10 1 27 1q74 0 98 -49q13 -26 13 -111v-103q0 -60 2.5 -76.5t12.5 -28.5q15 -15 37 -15h4v-60h-5q-25 0 -39 -20q-8 -11 -10 -27t-2 -73v-114q0 -91 -16 -117 q-28 -43 -95 -43q-17 0 -27 1v52q43 0 54 18.5t11 88.5z" />
<glyph unicode="~" d="M75 265l-36 26q28 62 55.5 87t66.5 25q33 0 102 -35q62 -33 88 -33q25 0 43.5 15.5t39.5 54.5l37 -24q-49 -110 -127 -110q-20 0 -43.5 9t-82.5 39q-40 20 -61 20q-25 0 -43.5 -17t-38.5 -57z" />
<glyph unicode="&#xa1;" horiz-adv-x="341" d="M125 391v102h91v-102h-91zM119 -174l27 503h48l27 -503h-102z" />
<glyph unicode="&#xa2;" d="M238 -7v115q-45 8 -71 29q-77 60 -77 201q0 138 75 202q26 22 73 32v95h50v-95q109 -14 133 -152l-61 -15q-16 93 -72 109v-346q31 10 47.5 34.5t24.5 72.5l61 -13q-14 -134 -133 -154v-115h-50zM238 167v346q-39 -12 -55.5 -52t-16.5 -120t16 -118.5t56 -55.5z" />
<glyph unicode="&#xa3;" d="M29 0v67h21q68 0 109.5 42t41.5 110q0 39 -10 97h-113v60h103q-15 89 -15 125q0 83 47 131.5t128 48.5q96 0 151 -91l-56 -47q-20 39 -42.5 55.5t-55.5 16.5q-44 0 -69 -32t-25 -89q0 -35 18 -118h139v-60h-131q6 -42 6 -69q0 -65 -20 -106.5t-68 -75.5h75 q93 0 127.5 14.5t64.5 66.5l55 -43q-31 -58 -74 -80q-27 -14 -59.5 -18.5t-113.5 -4.5h-234z" />
<glyph unicode="&#xa4;" d="M95 140l-41 41l74 73q-28 43 -28 89t27 89l-74 74l41 41l74 -74q43 26 88 26q46 0 89 -27l74 74l41 -41l-75 -75q27 -41 27 -87t-27 -87l74 -74l-42 -41l-73 74q-42 -28 -88 -28q-44 0 -87 27zM254 250q40 0 67.5 27t27.5 65q0 39 -27 66.5t-66 27.5q-38 0 -65.5 -27.5 t-27.5 -65.5t27 -65.5t64 -27.5z" />
<glyph unicode="&#xa5;" d="M218 0v217h-164v52h163l-36 75h-127v52h104l-128 271h88l143 -322l142 322h77l-132 -271h119v-52h-143l-33 -75h176v-52h-176v-217h-73z" />
<glyph unicode="&#xa6;" horiz-adv-x="500" d="M217 335v332h67v-332h-67zM217 153h67v-320h-67v320z" />
<glyph unicode="&#xa7;" d="M63 -26l71 14q13 -53 42 -77.5t80 -24.5q54 0 85.5 27t31.5 74q0 53 -41 80q-20 13 -103 42q-82 28 -114.5 61t-32.5 87q0 43 19 76.5t64 67.5q-65 51 -65 131q0 65 45 107t116 42q84 0 131 -47q28 -28 43 -87l-70 -11q-14 47 -39 68t-67 21q-40 0 -63.5 -24t-23.5 -65 q0 -46 33 -71q23 -19 92 -44q70 -25 100 -49q44 -36 44 -98q0 -41 -16.5 -72t-57.5 -66q44 -29 62.5 -60.5t18.5 -77.5q0 -76 -55 -124.5t-141 -48.5q-78 0 -126.5 38t-62.5 111zM239 367l-30 11q-33 -28 -45.5 -50t-12.5 -51q0 -30 14.5 -49t48.5 -35q23 -11 102 -37 q32 29 44.5 50t12.5 48q0 49 -45 75q-19 11 -89 38z" />
<glyph unicode="&#xa8;" horiz-adv-x="500" d="M322 574q-20 0 -34.5 14.5t-14.5 34.5q0 21 14.5 35.5t35.5 14.5q20 0 34.5 -14.5t14.5 -35.5q0 -20 -14.5 -34.5t-35.5 -14.5zM174 574q-20 0 -34.5 14.5t-14.5 34.5q0 21 14.5 35.5t35.5 14.5q20 0 34.5 -14.5t14.5 -35.5q0 -20 -14.5 -34.5t-35.5 -14.5z" />
<glyph unicode="&#xa9;" horiz-adv-x="784" d="M43 333q0 143 102 245t246 102q145 0 247 -102t102 -247q0 -143 -103 -243.5t-251 -100.5q-140 0 -241.5 102.5t-101.5 243.5zM99 333q0 -120 85 -207t203 -87q124 0 210.5 85t86.5 207q0 124 -85 210.5t-207 86.5q-121 0 -207 -86.5t-86 -208.5zM474 267l57 -13 q-13 -70 -44.5 -99.5t-91.5 -29.5q-74 0 -113.5 53.5t-39.5 153.5t40.5 154.5t114.5 54.5q57 0 90 -30.5t47 -97.5l-60 -13q-10 44 -22 63q-19 28 -54 28q-90 0 -90 -159q0 -76 23.5 -116.5t66.5 -40.5q33 0 48.5 19t27.5 73z" />
<glyph unicode="&#xaa;" horiz-adv-x="290" d="M260 267h-53q-2 12 -5 42q-19 -28 -38 -39t-47 -11q-43 0 -69.5 25.5t-26.5 66.5q0 51 36.5 78.5t104.5 27.5q20 0 34 -2v6v4q0 62 -52 62q-44 0 -55 -46l-57 8q21 85 116 85q60 0 87 -35q18 -24 18 -90v-84q0 -68 7 -98zM196 401v9q-20 3 -30 3q-83 0 -83 -62 q0 -21 11.5 -33t31.5 -12q32 0 51 25.5t19 69.5z" />
<glyph unicode="&#xab;" horiz-adv-x="358" d="M268 109l-87 148l87 148h45l-46 -148l46 -148h-45zM132 116l-87 141l87 141h45l-46 -141l46 -141h-45z" />
<glyph unicode="&#xac;" d="M39 205v62h433v-267h-67v205h-366z" />
<glyph unicode="&#xad;" horiz-adv-x="290" d="M35 218v60h220v-60h-220z" />
<glyph unicode="&#xae;" horiz-adv-x="784" d="M43 333q0 143 102 245t246 102q145 0 247 -102t102 -247q0 -143 -103 -243.5t-251 -100.5q-140 0 -241.5 102.5t-101.5 243.5zM99 333q0 -120 85 -207t203 -87q124 0 210.5 85t86.5 207q0 124 -85 210.5t-207 86.5q-121 0 -207 -86.5t-86 -208.5zM269 133v400h128 q62 0 96.5 -29.5t34.5 -82.5q0 -72 -67 -104l79 -184h-67l-70 170h-71v-170h-63zM332 353h58q36 0 55.5 18t19.5 52q0 60 -71 60h-62v-130z" />
<glyph unicode="&#xaf;" horiz-adv-x="500" d="M117 593v58h267v-58h-267z" />
<glyph unicode="&#xb0;" d="M256 374q-64 0 -109 45t-45 108q0 64 45 109t110 45q62 0 107 -45.5t45 -108.5t-45 -108t-108 -45zM256 430q35 0 60 28.5t25 68.5t-24.5 69t-59.5 29q-37 0 -62 -28.5t-25 -69.5q0 -40 25 -68.5t61 -28.5z" />
<glyph unicode="&#xb1;" d="M223 129v174h-172v61h172v174h65v-174h172v-61h-172v-174h-65zM51 19v61h409v-61h-409z" />
<glyph unicode="&#xb2;" horiz-adv-x="341" d="M29 267v47q110 91 154 143.5t44 93.5q0 33 -18.5 53t-49.5 20q-33 0 -50.5 -20t-23.5 -64l-57 11q13 62 44 90q37 34 92 34q58 0 92.5 -33t34.5 -88q0 -40 -19 -74t-65 -78q-50 -48 -97 -82h181v-53h-262z" />
<glyph unicode="&#xb3;" horiz-adv-x="341" d="M83 561l-52 15q29 99 130 99q56 0 89.5 -30.5t33.5 -80.5q0 -58 -59 -85q73 -23 73 -99q0 -53 -39 -86.5t-102 -33.5q-115 0 -139 104l54 17q22 -74 85 -74q33 0 53 20.5t20 54.5q0 37 -22 53.5t-69 16.5h-33v46h33q45 0 60 14q21 18 21 50q0 30 -17 48t-45 18 q-30 0 -47 -15.5t-28 -51.5z" />
<glyph unicode="&#xb4;" horiz-adv-x="500" d="M236 562l-34 35l149 124l51 -54z" />
<glyph unicode="&#xb5;" d="M163 44v-211h-73v660h73v-277q0 -77 16 -114q23 -55 76 -55q92 0 92 176v270h73v-493h-67v66q-14 -32 -22 -42q-29 -38 -77 -38q-29 0 -49.5 13t-41.5 45z" />
<glyph unicode="&#xb6;" d="M268 -167v464h-39q-58 0 -87.5 7t-54.5 28q-61 48 -61 149q0 52 20 94.5t55 65.5q42 26 128 26h206v-834h-58v777h-51v-777h-58z" />
<glyph unicode="&#xb7;" horiz-adv-x="238" d="M74 203v108h91v-108h-91z" />
<glyph unicode="&#xb8;" horiz-adv-x="500" d="M214 -78l26 78h41l-14 -44q33 0 54 -7q20 -7 32.5 -23.5t12.5 -36.5q0 -34 -28.5 -57t-70.5 -23t-87 27l11 32q40 -13 69 -13q44 0 44 31q0 22 -25 31l-52 4z" />
<glyph unicode="&#xb9;" horiz-adv-x="341" d="M88 267v46h70v273q-34 -31 -74 -52v60q46 23 93 77h43v-358h67v-46h-199z" />
<glyph unicode="&#xba;" horiz-adv-x="290" d="M144 259q-59 0 -91 41t-32 115q0 77 32 117.5t93 40.5q59 0 91 -41t32 -116q0 -76 -32.5 -116.5t-92.5 -40.5zM145 306q60 0 60 110t-59 110q-61 0 -61 -109q0 -111 60 -111z" />
<glyph unicode="&#xbb;" horiz-adv-x="358" d="M181 109l46 148l-46 148h45l87 -148l-87 -148h-45zM45 109l46 148l-46 148h45l87 -148l-87 -148h-45z" />
<glyph unicode="&#xbc;" horiz-adv-x="766" d="M96 267v46h70v273q-34 -31 -74 -52v60q46 23 93 77h43v-358h67v-46h-199zM187 0l334 667h58l-334 -667h-58zM420 94v38l160 276h72v-268h55v-46h-55v-94h-59v94h-173zM481 140h112v211z" />
<glyph unicode="&#xbd;" horiz-adv-x="766" d="M73 267v46h70v273q-34 -31 -74 -52v60q46 23 93 77h43v-358h67v-46h-199zM164 0l334 667h58l-334 -667h-58zM423 0v47q111 91 154.5 143.5t43.5 93.5q0 33 -19 53t-50 20q-32 0 -49 -19.5t-25 -64.5l-56 12q13 61 44 89q37 34 92 34q57 0 91.5 -33t34.5 -88 q0 -53 -41 -106.5t-139 -127.5h180v-53h-261z" />
<glyph unicode="&#xbe;" horiz-adv-x="766" d="M109 561l-52 15q29 99 130 99q56 0 89.5 -30.5t33.5 -80.5q0 -58 -59 -85q73 -23 73 -99q0 -53 -39 -86.5t-102 -33.5q-115 0 -139 104l54 17q22 -74 85 -74q33 0 53 20.5t20 54.5q0 37 -22 53.5t-69 16.5h-33v46h33q45 0 60 14q21 18 21 50q0 30 -17 48t-45 18 q-30 0 -47 -15.5t-28 -51.5zM204 0l334 667h58l-333 -667h-59zM426 94v38l160 276h72v-268h55v-46h-55v-94h-59v94h-173zM487 140h112v211z" />
<glyph unicode="&#xbf;" horiz-adv-x="494" d="M231 391v102h91v-102h-91zM385 26l70 -18q-25 -195 -200 -195q-85 0 -136 48.5t-51 129.5q0 55 22.5 94.5t79.5 83.5q45 35 58 57.5t13 64.5q0 22 -1 35h72v-19q0 -77 -17 -111t-77 -78q-69 -51 -69 -127q0 -56 28.5 -86.5t80.5 -30.5q113 0 127 152z" />
<glyph unicode="&#xc0;" horiz-adv-x="494" d="M285 733l-193 60l36 68l181 -83zM16 0l187 667h96l177 -667h-81l-49 191h-201l-48 -191h-81zM162 256h167l-83 332z" />
<glyph unicode="&#xc1;" horiz-adv-x="494" d="M215 733l-24 45l181 83l36 -68zM16 0l187 667h96l177 -667h-81l-49 191h-201l-48 -191h-81zM162 256h167l-83 332z" />
<glyph unicode="&#xc2;" horiz-adv-x="494" d="M165 726l-73 13l162 111l162 -111l-73 -13l-89 52zM16 0l187 667h96l177 -667h-81l-49 191h-201l-48 -191h-81zM162 256h167l-83 332z" />
<glyph unicode="&#xc3;" horiz-adv-x="494" d="M149 737l-43 25q38 75 99 75q27 0 66 -20q34 -17 52 -17q25 0 46 33l43 -24q-23 -39 -45.5 -55.5t-53.5 -16.5q-26 0 -67 21q-32 16 -48 16q-28 0 -49 -37zM16 0l187 667h96l177 -667h-81l-49 191h-201l-48 -191h-81zM162 256h167l-83 332z" />
<glyph unicode="&#xc4;" horiz-adv-x="494" d="M328 737q-21 0 -36 15.5t-15 35.5q0 22 15 37t36 15q22 0 37 -15t15 -37q0 -21 -15.5 -36t-36.5 -15zM176 737q-20 0 -35.5 15.5t-15.5 35.5q0 22 15 37t36 15q22 0 37 -15t15 -37q0 -21 -15 -36t-37 -15zM16 0l187 667h96l177 -667h-81l-49 191h-201l-48 -191h-81z M162 256h167l-83 332z" />
<glyph unicode="&#xc5;" horiz-adv-x="494" d="M255 708q-38 0 -65.5 27t-27.5 65q0 39 27.5 66t66.5 27q37 0 64 -27.5t27 -65.5t-27.5 -65t-64.5 -27zM255 754q19 0 32.5 13.5t13.5 32.5t-13.5 33t-32.5 14t-33 -13.5t-14 -33.5q0 -19 14 -32.5t33 -13.5zM16 0l187 667h96l177 -667h-81l-49 191h-201l-48 -191h-81z M162 256h167l-83 332z" />
<glyph unicode="&#xc6;" horiz-adv-x="733" d="M-31 0l337 667h404v-67h-285v-221h224v-67h-224v-245h288v-67h-369v206h-196l-100 -206h-79zM180 273h164v337z" />
<glyph unicode="&#xc7;" d="M218 -86l24 74q-53 8 -91 36q-52 38 -79.5 118.5t-27.5 190.5q0 167 61.5 257.5t174.5 90.5q85 0 134.5 -49t72.5 -155l-78 -18q-14 75 -33 103q-33 51 -95 51q-74 0 -112.5 -71.5t-38.5 -209.5q0 -142 45 -216q39 -62 107 -62q54 0 81.5 33.5t45.5 121.5l74 -18 q-19 -106 -65.5 -154t-133.5 -51l-11 -36q5 1 12 1q40 0 65 -19.5t25 -50.5q0 -35 -29.5 -58.5t-72.5 -23.5q-44 0 -90 28l12 32q42 -13 70 -13q46 0 46 33q0 22 -26 30q-14 5 -54 5h-13z" />
<glyph unicode="&#xc8;" horiz-adv-x="460" d="M296 733l-193 60l36 68l181 -83zM70 0v667h362v-67h-281v-221h222v-67h-222v-245h289v-67h-370z" />
<glyph unicode="&#xc9;" horiz-adv-x="460" d="M216 733l-24 45l181 83l36 -68zM70 0v667h362v-67h-281v-221h222v-67h-222v-245h289v-67h-370z" />
<glyph unicode="&#xca;" horiz-adv-x="460" d="M97 739l162 111l162 -111l-73 -13l-89 52l-89 -52zM71 0v667h362v-67h-281v-221h222v-67h-222v-245h289v-67h-370z" />
<glyph unicode="&#xcb;" horiz-adv-x="460" d="M332 737q-21 0 -36 15.5t-15 35.5q0 22 15 37t36 15q22 0 37 -15t15 -37q0 -21 -15.5 -36t-36.5 -15zM180 737q-20 0 -35.5 15.5t-15.5 35.5q0 22 15 37t36 15q22 0 37 -15t15 -37q0 -21 -15 -36t-37 -15zM70 0v667h362v-67h-281v-221h222v-67h-222v-245h289v-67h-370z " />
<glyph unicode="&#xcc;" horiz-adv-x="222" d="M132 733l-174 62l32 66l165 -83zM70 0v667h81v-667h-81z" />
<glyph unicode="&#xcd;" horiz-adv-x="222" d="M110 753l-22 45l164 83l33 -66zM70 0v667h81v-667h-81z" />
<glyph unicode="&#xce;" horiz-adv-x="221" d="M45 726l-66 13l135 111l135 -111l-66 -13l-69 52zM71 0v667h81v-667h-81z" />
<glyph unicode="&#xcf;" horiz-adv-x="222" d="M181 739q-20 0 -34 14.5t-14 34.5t14.5 34.5t34.5 14.5t34.5 -14.5t14.5 -34.5t-14.5 -34.5t-35.5 -14.5zM42 739q-20 0 -34 14.5t-14 34.5t14.5 34.5t34.5 14.5t34.5 -14.5t14.5 -34.5t-14.5 -34.5t-35.5 -14.5zM70 0v667h81v-667h-81z" />
<glyph unicode="&#xd0;" horiz-adv-x="562" d="M71 0v316h-64v59h64v292h144q141 0 222.5 -88t81.5 -241q0 -100 -39 -179.5t-107 -119.5q-67 -39 -158 -39h-144zM152 67h63q103 0 160.5 70t57.5 195t-58 196.5t-160 71.5h-63v-225h136v-59h-136v-249z" />
<glyph unicode="&#xd1;" horiz-adv-x="562" d="M186 737l-43 25q38 75 99 75q27 0 66 -20q34 -17 52 -17q25 0 46 33l43 -24q-23 -39 -45.5 -55.5t-53.5 -16.5q-26 0 -67 21q-32 16 -48 16q-28 0 -49 -37zM67 0v667h103l255 -527v527h70v-667h-80l-278 568v-568h-70z" />
<glyph unicode="&#xd2;" horiz-adv-x="562" d="M313 733l-193 60l36 68l181 -83zM128 46q-84 90 -84 285q0 200 84 290q57 60 158 60q112 0 172.5 -90t60.5 -258t-60.5 -257.5t-175.5 -89.5q-98 0 -155 60zM169 119q39 -66 112 -66q83 0 120 80q34 71 34 201q0 280 -152 280q-84 0 -121 -80q-34 -71 -34 -200 q0 -144 41 -215z" />
<glyph unicode="&#xd3;" horiz-adv-x="562" d="M256 733l-24 45l181 83l36 -68zM128 46q-84 90 -84 285q0 200 84 290q57 60 158 60q112 0 172.5 -90t60.5 -258t-60.5 -257.5t-175.5 -89.5q-98 0 -155 60zM169 119q39 -66 112 -66q83 0 120 80q34 71 34 201q0 280 -152 280q-84 0 -121 -80q-34 -71 -34 -200 q0 -144 41 -215z" />
<glyph unicode="&#xd4;" horiz-adv-x="562" d="M126 739l162 111l162 -111l-73 -13l-89 52l-89 -52zM128 46q-84 90 -84 285q0 200 84 290q57 60 158 60q112 0 172.5 -90t60.5 -258t-60.5 -257.5t-175.5 -89.5q-98 0 -155 60zM169 119q39 -66 112 -66q83 0 120 80q34 71 34 201q0 280 -152 280q-84 0 -121 -80 q-34 -71 -34 -200q0 -144 41 -215z" />
<glyph unicode="&#xd5;" horiz-adv-x="562" d="M188 737l-43 25q38 75 99 75q27 0 66 -20q34 -17 52 -17q25 0 46 33l43 -24q-23 -39 -45.5 -55.5t-53.5 -16.5q-26 0 -67 21q-32 16 -48 16q-28 0 -49 -37zM128 46q-84 90 -84 285q0 200 84 290q57 60 158 60q112 0 172.5 -90t60.5 -258t-60.5 -257.5t-175.5 -89.5 q-98 0 -155 60zM169 119q39 -66 112 -66q83 0 120 80q34 71 34 201q0 280 -152 280q-84 0 -121 -80q-34 -71 -34 -200q0 -144 41 -215z" />
<glyph unicode="&#xd6;" horiz-adv-x="562" d="M362 737q-21 0 -36 15.5t-15 35.5q0 22 15 37t36 15q22 0 37 -15t15 -37q0 -21 -15.5 -36t-36.5 -15zM210 737q-20 0 -35.5 15.5t-15.5 35.5q0 22 15 37t36 15q22 0 37 -15t15 -37q0 -21 -15 -36t-37 -15zM128 46q-84 90 -84 285q0 200 84 290q57 60 158 60 q112 0 172.5 -90t60.5 -258t-60.5 -257.5t-175.5 -89.5q-98 0 -155 60zM169 119q39 -66 112 -66q83 0 120 80q34 71 34 201q0 280 -152 280q-84 0 -121 -80q-34 -71 -34 -200q0 -144 41 -215z" />
<glyph unicode="&#xd7;" d="M127 160l-46 45l128 128l-128 128l46 46l128 -128l128 128l46 -46l-128 -128l128 -128l-46 -45l-128 128z" />
<glyph unicode="&#xd8;" horiz-adv-x="562" d="M68 -41l51 102q-71 96 -71 272q0 168 60.5 257.5t173.5 89.5q72 0 128 -38l30 60h58l-50 -101q66 -97 66 -267q0 -169 -59.5 -258.5t-170.5 -89.5q-70 0 -126 37l-31 -64h-59zM158 125l215 460q-38 31 -92 31q-83 0 -121 -81q-34 -71 -34 -203q0 -130 32 -207zM194 77 q34 -27 87 -27q83 0 121 81q34 71 34 203q0 124 -29 199z" />
<glyph unicode="&#xd9;" horiz-adv-x="545" d="M301 733l-193 60l36 68l181 -83zM475 667v-432q0 -73 -8 -112.5t-28 -67.5q-49 -69 -168 -69q-117 0 -166 69q-35 49 -35 171v441h81v-441q0 -61 5 -88.5t20 -45.5q31 -38 98 -38q79 0 108 53q17 33 17 123v437h76z" />
<glyph unicode="&#xda;" horiz-adv-x="545" d="M247 733l-24 45l181 83l36 -68zM475 667v-432q0 -73 -8 -112.5t-28 -67.5q-49 -69 -168 -69q-117 0 -166 69q-35 49 -35 171v441h81v-441q0 -61 5 -88.5t20 -45.5q31 -38 98 -38q79 0 108 53q17 33 17 123v437h76z" />
<glyph unicode="&#xdb;" horiz-adv-x="545" d="M118 739l162 111l162 -111l-73 -13l-89 52l-89 -52zM475 667v-432q0 -73 -8 -112.5t-28 -67.5q-49 -69 -168 -69q-117 0 -166 69q-35 49 -35 171v441h81v-441q0 -61 5 -88.5t20 -45.5q31 -38 98 -38q79 0 108 53q17 33 17 123v437h76z" />
<glyph unicode="&#xdc;" horiz-adv-x="545" d="M354 737q-21 0 -36 15.5t-15 35.5q0 22 15 37t36 15q22 0 37 -15t15 -37q0 -21 -15.5 -36t-36.5 -15zM202 737q-20 0 -35.5 15.5t-15.5 35.5q0 22 15 37t36 15q22 0 37 -15t15 -37q0 -21 -15 -36t-37 -15zM475 667v-432q0 -73 -8 -112.5t-28 -67.5q-49 -69 -168 -69 q-117 0 -166 69q-35 49 -35 171v441h81v-441q0 -61 5 -88.5t20 -45.5q31 -38 98 -38q79 0 108 53q17 33 17 123v437h76z" />
<glyph unicode="&#xdd;" horiz-adv-x="392" d="M171 733l-24 45l181 83l36 -68zM156 0v282l-185 385h86l146 -307l144 307h74l-184 -385v-282h-81z" />
<glyph unicode="&#xde;" horiz-adv-x="477" d="M70 0v667h81v-114h62q115 0 166 -37q77 -55 77 -163q0 -56 -23 -99.5t-65 -67.5q-29 -17 -60.5 -22.5t-94.5 -5.5h-62v-158h-81zM151 225h62q86 0 117 23q42 30 42 105q0 79 -49 114q-21 16 -56 19h-54h-62v-261z" />
<glyph unicode="&#xdf;" horiz-adv-x="477" d="M66 -36v423h-61v60h61q0 59 2.5 83.5t12.5 52.5q17 52 62 81.5t106 29.5q67 0 112 -40t45 -99q0 -113 -169 -149q4 -15 16.5 -24t58.5 -31q80 -39 115.5 -82.5t35.5 -103.5q0 -80 -48.5 -129.5t-126.5 -49.5q-37 0 -87 17l18 59q37 -15 73 -15q43 0 69.5 31t26.5 81 q0 47 -28 78q-17 18 -81 53q-55 29 -77 53.5t-22 56.5q0 17 8 42q63 14 90 29q55 30 55 80q0 39 -25 63t-65 24q-60 0 -86 -54q-18 -36 -18 -137v-483h-73z" />
<glyph unicode="&#xe0;" horiz-adv-x="460" d="M261 562l-166 105l51 54l149 -124zM403 0h-70q-5 36 -6 88q-28 -56 -60 -79t-81 -23q-66 0 -106 41t-40 108q0 64 37 109q54 63 180 63q28 0 65 -4v21q0 63 -22.5 92.5t-70.5 29.5q-76 0 -97 -78l-72 12q11 53 45 82q51 45 130 45q92 0 133 -57q16 -22 21 -51.5t5 -95.5 v-145q0 -115 9 -158zM323 209l-1 35q-30 7 -57 7q-148 0 -148 -119q0 -41 21.5 -63t61.5 -22q55 0 90 45t33 117z" />
<glyph unicode="&#xe1;" horiz-adv-x="460" d="M223 562l-34 35l149 124l51 -54zM403 0h-70q-5 36 -6 88q-28 -56 -60 -79t-81 -23q-66 0 -106 41t-40 108q0 64 37 109q54 63 180 63q28 0 65 -4v21q0 63 -22.5 92.5t-70.5 29.5q-76 0 -97 -78l-72 12q11 53 45 82q51 45 130 45q92 0 133 -57q16 -22 21 -51.5t5 -95.5 v-145q0 -115 9 -158zM323 209l-1 35q-30 7 -57 7q-148 0 -148 -119q0 -41 21.5 -63t61.5 -22q55 0 90 45t33 117z" />
<glyph unicode="&#xe2;" horiz-adv-x="460" d="M80 582l157 118l157 -118l-71 -13l-86 61l-86 -61zM403 0h-70q-5 36 -6 88q-28 -56 -60 -79t-81 -23q-66 0 -106 41t-40 108q0 64 37 109q54 63 180 63q28 0 65 -4v21q0 63 -22.5 92.5t-70.5 29.5q-76 0 -97 -78l-72 12q11 53 45 82q51 45 130 45q92 0 133 -57 q16 -22 21 -51.5t5 -95.5v-145q0 -115 9 -158zM323 209l-1 35q-30 7 -57 7q-148 0 -148 -119q0 -41 21.5 -63t61.5 -22q55 0 90 45t33 117z" />
<glyph unicode="&#xe3;" horiz-adv-x="460" d="M144 580l-40 24q37 78 91 78q27 0 63 -26q31 -21 49 -21q24 0 42 38l40 -24q-23 -42 -42.5 -58.5t-47.5 -16.5q-27 0 -64 26q-29 21 -45 21q-26 0 -46 -41zM403 0h-70q-5 36 -6 88q-28 -56 -60 -79t-81 -23q-66 0 -106 41t-40 108q0 64 37 109q54 63 180 63q28 0 65 -4 v21q0 63 -22.5 92.5t-70.5 29.5q-76 0 -97 -78l-72 12q11 53 45 82q51 45 130 45q92 0 133 -57q16 -22 21 -51.5t5 -95.5v-145q0 -115 9 -158zM323 209l-1 35q-30 7 -57 7q-148 0 -148 -119q0 -41 21.5 -63t61.5 -22q55 0 90 45t33 117z" />
<glyph unicode="&#xe4;" horiz-adv-x="460" d="M302 574q-20 0 -34.5 14.5t-14.5 34.5q0 21 14.5 35.5t35.5 14.5q20 0 34.5 -14.5t14.5 -35.5q0 -20 -14.5 -34.5t-35.5 -14.5zM154 574q-20 0 -34.5 14.5t-14.5 34.5q0 21 14.5 35.5t35.5 14.5q20 0 34.5 -14.5t14.5 -35.5q0 -20 -14.5 -34.5t-35.5 -14.5zM403 0h-70 q-5 36 -6 88q-28 -56 -60 -79t-81 -23q-66 0 -106 41t-40 108q0 64 37 109q54 63 180 63q28 0 65 -4v21q0 63 -22.5 92.5t-70.5 29.5q-76 0 -97 -78l-72 12q11 53 45 82q51 45 130 45q92 0 133 -57q16 -22 21 -51.5t5 -95.5v-145q0 -115 9 -158zM323 209l-1 35q-30 7 -57 7 q-148 0 -148 -119q0 -41 21.5 -63t61.5 -22q55 0 90 45t33 117z" />
<glyph unicode="&#xe5;" horiz-adv-x="460" d="M236 547q-36 0 -62.5 26.5t-26.5 62.5q0 38 26.5 64t63.5 26t63.5 -26t26.5 -64q0 -37 -26.5 -63t-64.5 -26zM236 591q20 0 33.5 13t13.5 32t-13.5 32.5t-32.5 13.5t-32.5 -13.5t-13.5 -32.5q0 -18 13.5 -31.5t31.5 -13.5zM403 0h-70q-5 36 -6 88q-28 -56 -60 -79 t-81 -23q-66 0 -106 41t-40 108q0 64 37 109q54 63 180 63q28 0 65 -4v21q0 63 -22.5 92.5t-70.5 29.5q-76 0 -97 -78l-72 12q11 53 45 82q51 45 130 45q92 0 133 -57q16 -22 21 -51.5t5 -95.5v-145q0 -115 9 -158zM323 209l-1 35q-30 7 -57 7q-148 0 -148 -119 q0 -41 21.5 -63t61.5 -22q55 0 90 45t33 117z" />
<glyph unicode="&#xe6;" horiz-adv-x="716" d="M606 147l68 -16q-36 -145 -171 -145q-54 0 -90 24t-63 77q-32 -55 -69.5 -78t-92.5 -23q-68 0 -108 40.5t-40 108.5q0 66 37 109q54 63 178 63q28 0 65 -4v22q0 121 -90 121q-76 0 -97 -78l-72 12q11 53 45 82q53 45 128 45q96 0 140 -69q51 69 133 69q81 0 128 -64 q32 -46 42 -127q4 -32 5 -78h-289q-1 -4 -1 -10q0 -88 29.5 -134.5t84.5 -46.5q38 0 61 22.5t39 77.5zM396 298h203q-2 148 -101 148q-87 0 -102 -148zM117 133q0 -41 21.5 -63.5t60.5 -22.5q54 0 88 46.5t34 120.5q0 17 -1 31q-34 7 -56 7q-147 0 -147 -119z" />
<glyph unicode="&#xe7;" horiz-adv-x="409" d="M169 -78l22 66q-150 24 -150 254q0 131 46.5 198t137.5 67q77 0 115 -46q18 -22 28 -47.5t20 -73.5l-74 -15q-10 63 -22 85q-21 36 -69 36q-55 0 -78 -49.5t-23 -166.5q0 -94 25 -138t78 -44q52 0 74 48q10 24 15 71l74 -9q-13 -88 -48 -126t-109 -45l-9 -31q33 0 54 -7 q20 -7 32.5 -23.5t12.5 -36.5q0 -34 -28.5 -57t-71.5 -23q-42 0 -87 27l12 32q40 -13 68 -13q45 0 45 31q0 22 -25 31q-15 4 -52 4q-2 1 -13 1z" />
<glyph unicode="&#xe8;" horiz-adv-x="443" d="M253 562l-166 105l51 54l149 -124zM333 147l68 -16q-37 -145 -172 -145q-90 0 -139 66.5t-49 187.5q0 123 51.5 195t139.5 72q82 0 129 -64q31 -42 43 -127q4 -32 5 -78h-291v-10q0 -181 115 -181q38 0 60.5 22.5t39.5 77.5zM122 298h204q0 71 -26.5 109.5t-74.5 38.5 q-91 0 -103 -148z" />
<glyph unicode="&#xe9;" horiz-adv-x="443" d="M218 562l-34 35l149 124l51 -54zM333 147l68 -16q-37 -145 -172 -145q-90 0 -139 66.5t-49 187.5q0 123 51.5 195t139.5 72q82 0 129 -64q31 -42 43 -127q4 -32 5 -78h-291v-10q0 -181 115 -181q38 0 60.5 22.5t39.5 77.5zM122 298h204q0 71 -26.5 109.5t-74.5 38.5 q-91 0 -103 -148z" />
<glyph unicode="&#xea;" horiz-adv-x="443" d="M78 582l157 118l157 -118l-71 -13l-86 61l-86 -61zM333 147l68 -16q-37 -145 -172 -145q-90 0 -139 66.5t-49 187.5q0 123 51.5 195t139.5 72q82 0 129 -64q31 -42 43 -127q4 -32 5 -78h-291v-10q0 -181 115 -181q38 0 60.5 22.5t39.5 77.5zM122 298h204 q0 71 -26.5 109.5t-74.5 38.5q-91 0 -103 -148z" />
<glyph unicode="&#xeb;" horiz-adv-x="443" d="M307 574q-20 0 -34.5 14.5t-14.5 34.5q0 21 14.5 35.5t35.5 14.5q20 0 34.5 -14.5t14.5 -35.5q0 -20 -14.5 -34.5t-35.5 -14.5zM159 574q-20 0 -34.5 14.5t-14.5 34.5q0 21 14.5 35.5t35.5 14.5q20 0 34.5 -14.5t14.5 -35.5q0 -20 -14.5 -34.5t-35.5 -14.5zM333 147 l68 -16q-37 -145 -172 -145q-90 0 -139 66.5t-49 187.5q0 123 51.5 195t139.5 72q82 0 129 -64q31 -42 43 -127q4 -32 5 -78h-291v-10q0 -181 115 -181q38 0 60.5 22.5t39.5 77.5zM122 298h204q0 71 -26.5 109.5t-74.5 38.5q-91 0 -103 -148z" />
<glyph unicode="&#xec;" horiz-adv-x="204" d="M119 562l-149 107l48 52l135 -124zM66 0v493h73v-493h-73z" />
<glyph unicode="&#xed;" horiz-adv-x="204" d="M94 562l-34 35l135 124l48 -52zM66 0v493h73v-493h-73z" />
<glyph unicode="&#xee;" horiz-adv-x="204" d="M46 569l-68 13l130 118l131 -118l-68 -13l-63 59zM69 0v493h73v-493h-73z" />
<glyph unicode="&#xef;" horiz-adv-x="204" d="M170 576q-19 0 -33 14.5t-14 33.5q0 20 14.5 34t33.5 14q20 0 34 -14t14 -34t-14.5 -34t-34.5 -14zM36 576q-19 0 -33 14t-14 33q0 20 14 34t34 14t33.5 -14t13.5 -34t-14 -33.5t-34 -13.5zM65 0v493h73v-493h-73z" />
<glyph unicode="&#xf0;" horiz-adv-x="443" d="M349 650l-63 -38q36 -60 57 -105q37 -78 52 -136.5t15 -129.5q0 -122 -49.5 -188.5t-140.5 -66.5t-139.5 68t-48.5 193q0 119 46 189.5t123 70.5q38 0 74 -28q-22 52 -48 97l-67 -40l-25 42l68 41l-7.5 15t-9.5 18t-11 21l54 33q25 -40 32 -52l63 38zM221 47 q108 0 108 200q0 97 -27.5 148t-79.5 51q-109 0 -109 -199q0 -200 108 -200z" />
<glyph unicode="&#xf1;" horiz-adv-x="460" d="M139 580l-40 24q37 78 91 78q27 0 63 -26q31 -21 49 -21q24 0 42 38l40 -24q-23 -42 -42.5 -58.5t-47.5 -16.5q-27 0 -64 26q-29 21 -45 21q-25 0 -46 -41zM66 0v493h68v-77q22 49 51 70t76 21q92 0 121 -73q12 -31 12 -120v-314h-73v304q0 82 -13 108q-18 34 -64 34 q-57 0 -85 -56q-20 -40 -20 -124v-266h-73z" />
<glyph unicode="&#xf2;" horiz-adv-x="460" d="M255 562l-166 105l51 54l149 -124zM229 -14q-90 0 -139 67.5t-49 191.5q0 127 49 194.5t141 67.5q70 0 118 -43q70 -66 70 -218q0 -126 -49 -193t-141 -67zM230 47q108 0 108 200q0 97 -27.5 148t-79.5 51q-109 0 -109 -199q0 -200 108 -200z" />
<glyph unicode="&#xf3;" horiz-adv-x="460" d="M220 562l-34 35l149 124l51 -54zM229 -14q-90 0 -139 67.5t-49 191.5q0 127 49 194.5t141 67.5q70 0 118 -43q70 -66 70 -218q0 -126 -49 -193t-141 -67zM230 47q108 0 108 200q0 97 -27.5 148t-79.5 51q-109 0 -109 -199q0 -200 108 -200z" />
<glyph unicode="&#xf4;" horiz-adv-x="460" d="M76 582l157 118l157 -118l-71 -13l-86 61l-86 -61zM229 -14q-90 0 -139 67.5t-49 191.5q0 127 49 194.5t141 67.5q70 0 118 -43q70 -66 70 -218q0 -126 -49 -193t-141 -67zM230 47q108 0 108 200q0 97 -27.5 148t-79.5 51q-109 0 -109 -199q0 -200 108 -200z" />
<glyph unicode="&#xf5;" horiz-adv-x="460" d="M144 580l-40 24q37 78 91 78q27 0 63 -26q31 -21 49 -21q24 0 42 38l40 -24q-23 -42 -42.5 -58.5t-47.5 -16.5q-27 0 -64 26q-29 21 -45 21q-26 0 -46 -41zM229 -14q-90 0 -139 67.5t-49 191.5q0 127 49 194.5t141 67.5q70 0 118 -43q70 -66 70 -218q0 -126 -49 -193 t-141 -67zM230 47q108 0 108 200q0 97 -27.5 148t-79.5 51q-109 0 -109 -199q0 -200 108 -200z" />
<glyph unicode="&#xf6;" horiz-adv-x="460" d="M305 574q-20 0 -34.5 14.5t-14.5 34.5q0 21 14.5 35.5t35.5 14.5q20 0 34.5 -14.5t14.5 -35.5q0 -20 -14.5 -34.5t-35.5 -14.5zM157 574q-20 0 -34.5 14.5t-14.5 34.5q0 21 14.5 35.5t35.5 14.5q20 0 34.5 -14.5t14.5 -35.5q0 -20 -14.5 -34.5t-35.5 -14.5zM229 -14 q-90 0 -139 67.5t-49 191.5q0 127 49 194.5t141 67.5q70 0 118 -43q70 -66 70 -218q0 -126 -49 -193t-141 -67zM230 47q108 0 108 200q0 97 -27.5 148t-79.5 51q-109 0 -109 -199q0 -200 108 -200z" />
<glyph unicode="&#xf7;" d="M214 418v93h83v-93h-83zM51 303v61h409v-61h-409zM214 156v93h83v-93h-83z" />
<glyph unicode="&#xf8;" horiz-adv-x="460" d="M59 -47l43 86q-61 74 -61 208q0 124 49 192t138 68q56 0 100 -27l25 51h54l-42 -84q54 -71 54 -202q0 -126 -49 -192.5t-142 -66.5q-45 0 -88 22l-28 -55h-53zM138 97l156 334q-25 17 -62 17q-117 0 -117 -200q0 -93 23 -151zM174 58q27 -13 52 -13q119 0 119 201 q0 82 -18 140z" />
<glyph unicode="&#xf9;" horiz-adv-x="460" d="M245 562l-166 105l51 54l149 -124zM326 0v74q-25 -48 -53.5 -68t-74.5 -20q-89 0 -118 71q-14 36 -14 125v311h73v-311q0 -72 7 -93q15 -42 68 -42q55 0 85 58q22 45 22 163v225h73v-493h-68z" />
<glyph unicode="&#xfa;" horiz-adv-x="460" d="M219 562l-34 35l149 124l51 -54zM326 0v74q-25 -48 -53.5 -68t-74.5 -20q-89 0 -118 71q-14 36 -14 125v311h73v-311q0 -72 7 -93q15 -42 68 -42q55 0 85 58q22 45 22 163v225h73v-493h-68z" />
<glyph unicode="&#xfb;" horiz-adv-x="460" d="M76 582l157 118l157 -118l-71 -13l-86 61l-86 -61zM326 0v74q-25 -48 -53.5 -68t-74.5 -20q-89 0 -118 71q-14 36 -14 125v311h73v-311q0 -72 7 -93q15 -42 68 -42q55 0 85 58q22 45 22 163v225h73v-493h-68z" />
<glyph unicode="&#xfc;" horiz-adv-x="460" d="M309 574q-20 0 -34.5 14.5t-14.5 34.5q0 21 14.5 35.5t35.5 14.5q20 0 34.5 -14.5t14.5 -35.5q0 -20 -14.5 -34.5t-35.5 -14.5zM161 574q-20 0 -34.5 14.5t-14.5 34.5q0 21 14.5 35.5t35.5 14.5q20 0 34.5 -14.5t14.5 -35.5q0 -20 -14.5 -34.5t-35.5 -14.5zM326 0v74 q-25 -48 -53.5 -68t-74.5 -20q-89 0 -118 71q-14 36 -14 125v311h73v-311q0 -72 7 -93q15 -42 68 -42q55 0 85 58q22 45 22 163v225h73v-493h-68z" />
<glyph unicode="&#xfd;" horiz-adv-x="375" d="M188 562l-34 35l149 124l51 -54zM25 -113q21 -4 34 -4q40 0 56.5 23.5t42.5 115.5l-139 471h73l101 -369l110 369h69l-170 -543q-23 -73 -50.5 -100.5t-78.5 -27.5q-21 0 -48 5v60z" />
<glyph unicode="&#xfe;" horiz-adv-x="477" d="M139 64v-231h-73v834h73v-261q23 53 52 75t74 22q78 0 125 -68t47 -182q0 -154 -76 -228q-36 -35 -97 -35q-44 0 -71.5 16t-53.5 58zM139 283v-74q0 -51 5.5 -73t24.5 -45q33 -40 78 -40q53 0 81 51t28 147q0 90 -28 141.5t-77 51.5q-51 0 -85 -62q-27 -50 -27 -97z" />
<glyph unicode="&#xff;" horiz-adv-x="375" d="M273 574q-20 0 -34.5 14.5t-14.5 34.5q0 21 14.5 35.5t35.5 14.5q20 0 34.5 -14.5t14.5 -35.5q0 -20 -14.5 -34.5t-35.5 -14.5zM125 574q-20 0 -34.5 14.5t-14.5 34.5q0 21 14.5 35.5t35.5 14.5q20 0 34.5 -14.5t14.5 -35.5q0 -20 -14.5 -34.5t-35.5 -14.5zM25 -113 q21 -4 34 -4q40 0 56.5 23.5t42.5 115.5l-139 471h73l101 -369l110 369h69l-170 -543q-23 -73 -50.5 -100.5t-78.5 -27.5q-21 0 -48 5v60z" />
<glyph unicode="&#x152;" horiz-adv-x="818" d="M430 0v81q-32 -53 -67.5 -74t-92.5 -21q-109 0 -167.5 89t-58.5 254q0 170 60 261t173 91q54 0 89.5 -19t63.5 -65v70h365v-67h-288v-221h227v-67h-227v-245h292v-67h-369zM430 177v331q-37 106 -144 106q-81 0 -119.5 -72t-38.5 -223q0 -136 38 -201t118 -65 q112 0 146 124z" />
<glyph unicode="&#x153;" horiz-adv-x="732" d="M623 147l68 -16q-36 -145 -170 -145q-52 0 -88 21.5t-64 68.5q-50 -90 -144 -90q-88 0 -136 68.5t-48 192.5t48 192t137 68q98 0 150 -88q60 88 147 88q82 0 129 -64q32 -46 42 -127q4 -32 5 -78h-288q1 -191 113 -191q38 0 60.5 22.5t38.5 77.5zM415 298h201 q-1 71 -26.5 109.5t-73.5 38.5q-86 0 -101 -148zM228 47q106 0 106 200q0 199 -105 199q-107 0 -107 -198q0 -201 106 -201z" />
<glyph unicode="&#x178;" horiz-adv-x="392" d="M277 737q-21 0 -36 15.5t-15 35.5q0 22 15 37t36 15q22 0 37 -15t15 -37q0 -21 -15.5 -36t-36.5 -15zM125 737q-20 0 -35.5 15.5t-15.5 35.5q0 22 15 37t36 15q22 0 37 -15t15 -37q0 -21 -15 -36t-37 -15zM156 0v282l-185 385h86l146 -307l144 307h74l-184 -385v-282h-81 z" />
<glyph unicode="&#x2c6;" horiz-adv-x="500" d="M93 582l157 118l157 -118l-71 -13l-86 61l-86 -61z" />
<glyph unicode="&#x2dc;" horiz-adv-x="500" d="M147 580l-40 24q37 78 91 78q27 0 63 -26q31 -21 49 -21q24 0 42 38l40 -24q-23 -42 -42.5 -58.5t-47.5 -16.5q-27 0 -64 26q-29 21 -45 21q-25 0 -46 -41z" />
<glyph unicode="&#x2000;" horiz-adv-x="446" />
<glyph unicode="&#x2001;" horiz-adv-x="893" />
<glyph unicode="&#x2002;" horiz-adv-x="446" />
<glyph unicode="&#x2003;" horiz-adv-x="893" />
<glyph unicode="&#x2004;" horiz-adv-x="297" />
<glyph unicode="&#x2005;" horiz-adv-x="223" />
<glyph unicode="&#x2006;" horiz-adv-x="148" />
<glyph unicode="&#x2007;" horiz-adv-x="148" />
<glyph unicode="&#x2008;" horiz-adv-x="111" />
<glyph unicode="&#x2009;" horiz-adv-x="178" />
<glyph unicode="&#x200a;" horiz-adv-x="49" />
<glyph unicode="&#x2010;" horiz-adv-x="290" d="M35 218v60h220v-60h-220z" />
<glyph unicode="&#x2011;" horiz-adv-x="290" d="M35 218v60h220v-60h-220z" />
<glyph unicode="&#x2012;" horiz-adv-x="290" d="M35 218v60h220v-60h-220z" />
<glyph unicode="&#x2013;" d="M91 218v60h329v-60h-329z" />
<glyph unicode="&#x2014;" horiz-adv-x="613" d="M31 218v60h551v-60h-551z" />
<glyph unicode="&#x2018;" horiz-adv-x="204" d="M48 459v98l65 121h44l-59 -115h41v-104h-91z" />
<glyph unicode="&#x2019;" horiz-adv-x="204" d="M48 447l59 115h-41v105h91v-99l-65 -121h-44z" />
<glyph unicode="&#x201a;" horiz-adv-x="204" d="M66 0v105h91v-99l-65 -121h-44l59 115h-41z" />
<glyph unicode="&#x201c;" horiz-adv-x="341" d="M184 459v98l65 121h44l-59 -115h41v-104h-91zM48 459v98l65 121h44l-59 -115h41v-104h-91z" />
<glyph unicode="&#x201d;" horiz-adv-x="341" d="M184 447l59 115h-41v105h91v-99l-65 -121h-44zM48 447l59 115h-41v105h91v-99l-65 -121h-44z" />
<glyph unicode="&#x201e;" horiz-adv-x="341" d="M202 0v105h91v-99l-65 -121h-44l59 115h-41zM66 0v105h91v-99l-65 -121h-44l59 115h-41z" />
<glyph unicode="&#x2022;" horiz-adv-x="667" d="M335 200q-57 0 -98 40.5t-41 97.5q0 58 41 98.5t100 40.5q55 0 95.5 -41t40.5 -97q0 -58 -40.5 -98.5t-97.5 -40.5z" />
<glyph unicode="&#x2026;" horiz-adv-x="715" d="M551 0v108h91v-108h-91zM312 0v108h91v-108h-91zM74 0v108h91v-108h-91z" />
<glyph unicode="&#x202f;" horiz-adv-x="178" />
<glyph unicode="&#x2039;" horiz-adv-x="222" d="M132 109l-87 148l87 148h45l-46 -148l46 -148h-45z" />
<glyph unicode="&#x203a;" horiz-adv-x="222" d="M45 109l46 148l-46 148h45l87 -148l-87 -148h-45z" />
<glyph unicode="&#x205f;" horiz-adv-x="223" />
<glyph unicode="&#x20ac;" horiz-adv-x="596" d="M42 253l25 60h44q-1 7 -1 23q0 11 1 17h-69l25 60h48q13 111 53 173q63 95 178 95q86 0 135.5 -49t71.5 -155l-77 -18q-16 76 -34 103q-34 51 -94 51q-62 0 -99.5 -51t-47.5 -149h234l-25 -60h-213v-3q-1 -10 -1 -18q1 -11 1 -19h194l-25 -60h-165q3 -46 21 -96 q36 -103 127 -103q54 0 81 33t46 122l73 -18q-20 -110 -68 -157.5t-138 -47.5q-199 0 -228 267h-73z" />
<glyph unicode="&#x2122;" horiz-adv-x="716" d="M292 267v380h91l83 -306l84 306h89v-380h-58v322l-90 -322h-56l-88 322v-322h-55zM111 267v331h-88v49h240v-49h-89v-331h-63z" />
<glyph unicode="&#x25fc;" horiz-adv-x="495" d="M0 495h495v-495h-495v495z" />
</font>
</defs>
</svg>
